# xmcd CD database file
#
# Track frame offsets:
#	150
#	18269
#	30771
#	43384
#	61320
#	72785
#	84786
#	94268
#	109732
#	125328
#	139649
#	152537
#	165356
#	175992
#	193181
#	211383
#	226845
#	246419
#	260858
#	278665
#	295369
#
# Disc length: 4092 seconds
#
# Revision: 0
# Processed by: cddbd v1.5.2PL0 Copyright (c) Steve Scherf et al.
# Submitted via: CDex 1.70beta2
#
DISCID=220ffa15
DTITLE=Eric "Two Scoops" Moore - Big Buffet! Combo Platter
DYEAR=2006
DGENRE=Blues
TTITLE0=Big Buffet
TTITLE1=Two Scoops
TTITLE2=He Quit
TTITLE3=Loading Dock Baby
TTITLE4=Big Fat Mama
TTITLE5=Bug Stomp
TTITLE6=Pork Chops
TTITLE7=Twelve Inches
TTITLE8=Place of Love
TTITLE9=Stop Shopping Mama
TTITLE10=Saxident
TTITLE11=No Good for Nothin'
TTITLE12=Auto Service Hell
TTITLE13=Save Me Some Time
TTITLE14=Earl's Boogie
TTITLE15=Lefthanded
TTITLE16=Clean Clean Clean
TTITLE17=Let's Eat!
TTITLE18=Hamburger Time
TTITLE19=Old Whiskey
TTITLE20=Shake It!
EXTD=YEAR: 2006
EXTT0=
EXTT1=
EXTT2=
EXTT3=
EXTT4=
EXTT5=
EXTT6=
EXTT7=
EXTT8=
EXTT9=
EXTT10=
EXTT11=
EXTT12=
EXTT13=
EXTT14=
EXTT15=
EXTT16=
EXTT17=
EXTT18=
EXTT19=
EXTT20=
PLAYORDER=
